<svg width="30" height="20" viewBox="0 0 30 20" fill="none" xmlns="http://www.w3.org/2000/svg">
<path d="M29.1666 18.5071C29.1666 19.2863 28.5348 19.9167 27.757 19.9167H16.4095C16.0357 19.9167 15.6771 19.7682 15.4128 19.5038C15.1484 19.2395 14.9999 18.8809 14.9999 18.5071C14.9999 18.1332 15.1484 17.7747 15.4128 17.5104C15.6771 17.246 16.0357 17.0975 16.4095 17.0975H27.757C28.5362 17.0975 29.1666 17.7279 29.1666 18.5071ZM29.1666 10C29.1666 10.7792 28.5348 11.4096 27.757 11.4096H2.24284C1.86899 11.4096 1.51046 11.2611 1.24611 10.9967C0.981761 10.7324 0.833252 10.3739 0.833252 10C0.833252 9.62616 0.981761 9.26763 1.24611 9.00328C1.51046 8.73893 1.86899 8.59042 2.24284 8.59042H27.757C28.5362 8.59042 29.1666 9.22226 29.1666 10ZM27.757 2.90251C28.1308 2.90251 28.4894 2.754 28.7537 2.48965C29.0181 2.2253 29.1666 1.86677 29.1666 1.49293C29.1666 1.11908 29.0181 0.760549 28.7537 0.496201C28.4894 0.231852 28.1308 0.0833435 27.757 0.0833435H10.7428C10.5577 0.0833435 10.3744 0.119803 10.2034 0.190642C10.0324 0.26148 9.877 0.365309 9.74611 0.496201C9.61522 0.627092 9.51139 0.782484 9.44055 0.953503C9.36971 1.12452 9.33325 1.30782 9.33325 1.49293C9.33325 1.67804 9.36971 1.86133 9.44055 2.03235C9.51139 2.20337 9.61522 2.35876 9.74611 2.48965C9.877 2.62054 10.0324 2.72437 10.2034 2.79521C10.3744 2.86605 10.5577 2.90251 10.7428 2.90251H27.757Z" fill="#00D4FF"/>
</svg>
