<svg width="18" height="18" viewBox="0 0 18 18" fill="none" xmlns="http://www.w3.org/2000/svg">
<path d="M8.99833 0.138672C6.59213 0.138672 6.29016 0.149196 5.3451 0.192215C4.40189 0.235419 3.75807 0.384785 3.19473 0.603942C2.61201 0.830299 2.1177 1.13309 1.62523 1.62587C1.1324 2.11847 0.829689 2.61291 0.602654 3.19561C0.383002 3.75928 0.233492 4.40346 0.191038 5.34655C0.148953 6.29186 0.137878 6.59411 0.137878 9.00095C0.137878 11.4078 0.148584 11.7089 0.191407 12.6542C0.234784 13.5977 0.38411 14.2417 0.603023 14.8052C0.829505 15.3881 1.13222 15.8825 1.62487 16.3751C2.11714 16.8681 2.61145 17.1716 3.19381 17.398C3.75752 17.6171 4.40152 17.7665 5.34455 17.8097C6.2896 17.8527 6.59139 17.8632 8.99741 17.8632C11.4038 17.8632 11.7049 17.8527 12.6499 17.8097C13.5931 17.7665 14.2377 17.6171 14.8014 17.398C15.3839 17.1716 15.8775 16.8681 16.3698 16.3751C16.8626 15.8825 17.1653 15.3881 17.3924 14.8054C17.6102 14.2417 17.7597 13.5975 17.804 12.6544C17.8464 11.7091 17.8575 11.4078 17.8575 9.00095C17.8575 6.59411 17.8464 6.29205 17.804 5.34674C17.7597 4.40328 17.6102 3.75928 17.3924 3.19579C17.1653 2.61291 16.8626 2.11847 16.3698 1.62587C15.8769 1.13291 15.3841 0.830115 14.8008 0.603942C14.236 0.384785 13.5918 0.235419 12.6486 0.192215C11.7036 0.149196 11.4027 0.138672 8.99575 0.138672H8.99833ZM8.20353 1.73573C8.43942 1.73536 8.70263 1.73573 8.99833 1.73573C11.3639 1.73573 11.6443 1.74422 12.5785 1.78669C13.4423 1.8262 13.9111 1.97058 14.2235 2.09188C14.6369 2.25251 14.9317 2.44453 15.2416 2.75471C15.5517 3.06489 15.7437 3.3603 15.9046 3.77387C16.0259 4.0859 16.1704 4.55486 16.2097 5.41893C16.2522 6.35316 16.2614 6.6338 16.2614 8.99892C16.2614 11.364 16.2522 11.6447 16.2097 12.5789C16.1702 13.443 16.0259 13.912 15.9046 14.224C15.744 14.6375 15.5517 14.932 15.2416 15.242C14.9315 15.5522 14.6371 15.7442 14.2235 15.9049C13.9115 16.0267 13.4423 16.1707 12.5785 16.2102C11.6445 16.2527 11.3639 16.2619 8.99833 16.2619C6.63256 16.2619 6.35218 16.2527 5.4182 16.2102C4.55435 16.1704 4.08552 16.026 3.77302 15.9047C3.35956 15.744 3.06423 15.552 2.75413 15.2418C2.44404 14.9317 2.25207 14.637 2.09112 14.2232C1.96985 13.9112 1.82532 13.4422 1.786 12.5782C1.74355 11.6439 1.73506 11.3633 1.73506 8.99671C1.73506 6.63011 1.74355 6.35095 1.786 5.41672C1.82551 4.55264 1.96985 4.08368 2.09112 3.77128C2.2517 3.35771 2.44404 3.0623 2.75413 2.75212C3.06423 2.44194 3.35956 2.24993 3.77302 2.08893C4.08533 1.96707 4.55435 1.82306 5.4182 1.78336C6.23552 1.74644 6.55226 1.73536 8.20353 1.73351V1.73573ZM13.7277 3.20724C13.5174 3.20724 13.3118 3.26962 13.137 3.38649C12.9621 3.50336 12.8258 3.66948 12.7454 3.86382C12.6649 4.05817 12.6439 4.27202 12.6849 4.47832C12.726 4.68462 12.8273 4.87412 12.976 5.02283C13.1247 5.17155 13.3142 5.2728 13.5205 5.3138C13.7267 5.35479 13.9405 5.33368 14.1348 5.25313C14.3291 5.17258 14.4951 5.03621 14.6119 4.86128C14.7286 4.68634 14.7909 4.48069 14.7909 4.27034C14.7909 3.68321 14.3146 3.20687 13.7277 3.20687V3.20724ZM8.99833 4.4498C6.48563 4.4498 4.44841 6.48757 4.44841 9.00095C4.44841 11.5143 6.48563 13.5512 8.99833 13.5512C11.511 13.5512 13.5477 11.5143 13.5477 9.00095C13.5477 6.48757 11.5109 4.4498 8.99815 4.4498H8.99833ZM8.99833 6.04686C10.6293 6.04686 11.9516 7.36937 11.9516 9.00095C11.9516 10.6324 10.6293 11.955 8.99833 11.955C7.36719 11.955 6.04503 10.6324 6.04503 9.00095C6.04503 7.36937 7.36719 6.04686 8.99833 6.04686Z" fill="white"/>
</svg>