<svg width="16" height="14" viewBox="0 0 16 14" fill="none" xmlns="http://www.w3.org/2000/svg">
<path d="M15.6942 2.22663C15.1282 2.4778 14.5203 2.64759 13.8811 2.72391C14.5334 2.33327 15.0332 1.71424 15.2691 0.977495C14.6495 1.34555 13.9713 1.60467 13.264 1.74358C12.6885 1.13009 11.8678 0.74707 10.9597 0.74707C9.21687 0.74707 7.8034 2.15997 7.8034 3.90386C7.8034 4.15095 7.83123 4.39201 7.88473 4.62345C5.26107 4.4916 2.93503 3.23484 1.37808 1.32519C1.10622 1.79158 0.950607 2.33384 0.950607 2.91241C0.950607 4.00748 1.50799 4.97368 2.35491 5.53965C1.85355 5.52412 1.36318 5.38879 0.924815 5.14498V5.18487C0.924815 6.71451 2.0128 7.98997 3.45704 8.28005C3.19173 8.35274 2.91331 8.39072 2.62527 8.39072C2.42162 8.39072 2.22403 8.37145 2.03101 8.33514C2.43274 9.58888 3.59859 10.5015 4.97959 10.5273C3.89918 11.3742 2.53783 11.8791 1.05924 11.8791C0.80457 11.8791 0.552876 11.8639 0.305786 11.8341C1.70304 12.73 3.36206 13.2531 5.14486 13.2531C10.9511 13.2531 14.1266 8.44279 14.1266 4.27128C14.1266 4.13433 14.1236 3.9984 14.117 3.86295C14.7357 3.41545 15.2698 2.86137 15.6942 2.22663Z" fill="white"/>
</svg>
